<?xml version="1.0" encoding="utf-8"?>
<!-- Generator: Adobe Illustrator 25.0.1, SVG Export Plug-In . SVG Version: 6.00 Build 0)  -->
<svg version="1.1" id="레이어_1" xmlns="http://www.w3.org/2000/svg" xmlns:xlink="http://www.w3.org/1999/xlink" x="0px"
	 y="0px" viewBox="0 0 425.2 623.6" style="enable-background:new 0 0 425.2 623.6;" xml:space="preserve">
<g id="black">
	<rect style="fill:#FFFFFF;" width="425.2" height="623.6"/>
</g>
<g id="color">
	<path style="fill:#E2E2E1;" d="M196.6,84.1H93.4c-8,0-15.6,3.7-20.6,10l-43.7,55.7c-7.4,9.5-7.4,22.8,0,32.3l43.7,55.7
		c5,6.3,12.5,10,20.6,10h103.1c8,0,15.6-3.7,20.6-10l43.7-55.7c7.4-9.5,7.4-22.8,0-32.3l-43.7-55.7
		C212.2,87.7,204.6,84.1,196.6,84.1z"/>
	<path style="fill:#9B9B9B;" d="M201.4,213.2c-2.1-1.4-2.8-4.1-3-6.6c-0.2-2.5,0.1-5-0.5-7.5c-0.6-2.4-2.4-4.8-4.9-5
		c-0.6-0.1-1.3,0-1.9-0.1c-0.6-0.2-1.2-0.7-1.1-1.3c0-0.6,0.1-1.1,0.1-1.7H82.7v40.6c0,5,27.9,9.1,62.3,9.1c25.4,0,47.3-2.2,57-5.4
		c0.1-2.7,0.3-5.5,0.4-8.2C202.7,222.4,202.9,217.6,201.4,213.2z"/>
	<path style="fill:#7A7474;" d="M190,190.9c0,0.6-0.1,1.1-0.1,1.7c0,0.6,0.5,1.1,1.1,1.3c0.6,0.2,1.3,0.1,1.9,0.1
		c2.5,0.2,4.3,2.6,4.9,5c0.6,2.4,0.3,5,0.5,7.5c0.2,2.5,1,5.2,3,6.6c1.5,4.4,1.3,9.2,1.1,13.8c-0.1,2.7-0.3,5.5-0.4,8.2
		c3.4-1.1,5.4-2.4,5.4-3.7v-40.6H190z"/>
	<path style="fill:#B7B7B7;" d="M81.2,206.5c0,1.3,0,2.6,0.8,3.6c0.8,1,2.1,1.4,3.3,1.7c2.7,0.7,5.4,1.1,8.1,1.4
		c1.8,0.2,3.8,0.3,5.3-0.8c0.9-0.7,1.5-1.7,2-2.7c1.5-2.7,3-5.4,4.5-8.1c0.9-1.6,1.8-3.2,2.6-4.8c0.4-0.7,0.8-1.4,0.9-2.2
		c0.2-0.8,0-1.7-0.5-2.3c-0.6-0.7-1.5-0.9-2.4-1c-5.8-0.9-11.6-1.9-17.4-2.8c-1.4-0.2-2.9-0.5-4.3-0.7c-0.8-0.1-2-0.5-2.5,0.4
		c-0.5,0.9-0.2,3-0.2,4c0,1.5-0.1,2.9-0.1,4.4C81.2,199.9,81.2,203.2,81.2,206.5z"/>
	<path style="fill:#B7B7B7;" d="M197.8,199.1c-0.5-1.9-1.7-3.8-3.4-4.6c-0.7,1.9-1.6,3.8-2.6,5.6c-0.9,1.6-1.9,3.2-2.9,4.7
		c-0.5,0.8-1.1,1.5-1.5,2.4c-0.3,0.9-0.4,1.9,0,2.7c0.8,1.5,2.7,1.8,4.4,1.7c2.5,0,5.1-0.4,7.5-1c-0.6-1.3-0.9-2.7-1-4.1
		C198.2,204.1,198.4,201.6,197.8,199.1z"/>
	<path style="fill:#5A4A4B;" d="M208.1,200.2c-0.6-1.7-1.5-3.2-2.5-4.8c-1.1-1.8-2.3-3.6-4.1-4.8c-1.8-1.2-5.3-1.7-6,0.9
		c-0.3,1-0.7,2-1,3c1.7,0.8,2.9,2.7,3.4,4.6c0.6,2.4,0.3,5,0.5,7.5c0.1,1.4,0.4,2.8,1,4.1c1-0.3,2-0.6,3-0.9
		c2.3-0.8,4.6-2.1,5.7-4.3C208.7,203.8,208.6,201.9,208.1,200.2z"/>
	<path style="fill:#B7B7B7;" d="M112.5,198.6c1.3,1.7,2.8,3.3,3.7,5.3c1.3,3.1,0.8,7,3,9.6c1.8,2.2,5,2.7,7.9,3.1
		c1.7,0.2,3.4,0.4,5.1,0.3c1.7-0.1,3.4-0.6,4.7-1.6c2.2-1.6,3.1-4.4,3.8-7c0.8-3.2,1.4-6.5,1.7-9.8c0.1-1.2,0.2-2.5-0.6-3.5
		c-0.8-1-2.3-1.2-3.7-1.3c-4.8-0.3-9.6-0.5-14.4-0.6c-2.4,0-4.7-0.1-7.1-0.1c-1.4,0-4.2-0.5-5.5,0.4
		C109.6,194.6,111.7,197.5,112.5,198.6z"/>
	<path style="fill:#B7B7B7;" d="M146.5,203.2c1.7,2.6,4,4.7,6.2,6.8c1.5,1.4,2.9,2.8,4.7,3.8c2.5,1.5,5.5,2,8.4,1.6
		c1.3-0.2,2.6-0.6,3.5-1.5c1.3-1.4,1.4-3.4,1.5-5.3c0.1-4.2,0.2-8.4,0.3-12.7c0-0.6,0-1.2-0.3-1.8c-0.5-0.9-1.7-1.2-2.7-1.3
		c-4.7-0.6-9.4-0.6-14-0.2c-2.4,0.2-4.8,0.6-7.1,1c-1.9,0.4-3,0.6-2.9,2.8C144.2,198.8,145.2,201.1,146.5,203.2z"/>
	<path style="fill:#B7B7B7;" d="M173.1,207.5c0.1,1,0.2,2,0.5,2.9c0.3,0.9,0.9,1.8,1.8,2.3c0.8,0.5,1.8,0.5,2.7,0.4
		c2.4-0.3,4.5-1.8,6-3.6c1.6-1.8,2.7-4,3.7-6.1c1-1.9,1.9-3.9,2.9-5.8c1-2,2-4,3-6c-6-0.9-12.2-0.7-18.1,0.5c-1,0.2-2.6,0.3-3.3,1.2
		c-0.7,0.9-0.2,2.6-0.2,3.7C172.5,200.4,172.8,204,173.1,207.5z"/>
	<path style="fill:#5A4A4B;" d="M206.7,194.6c0.4,0.5,0.8,1.1,1.5,1c0.4,0,0.7-0.3,0.9-0.7s0.3-0.7,0.3-1.1c0.2-1.3,0.2-2.6,0.1-3.9
		c0-0.6-0.1-1.2-0.5-1.6c-1-1.2-4.1-1.2-4.6,0.5C204,190.5,205.8,193.2,206.7,194.6z"/>
	<path style="fill:#B7B7B7;" d="M102.4,210.2c-0.4,0.9-0.9,1.9-0.7,2.8c0.3,1.5,2.1,2.2,3.6,2.7c2.1,0.6,4.3,1.3,6.5,0.9
		c2.2-0.4,4.3-2,4.4-4.2c0-1-0.3-2-0.7-2.9c-0.7-1.6-1.4-3.2-2.2-4.8c-0.7-1.3-1.2-3-2.4-3.9c-2.9-2.2-4.5,1.5-5.5,3.6
		C104.3,206.4,103.3,208.3,102.4,210.2z"/>
	<path style="fill:#B7B7B7;" d="M81,212.5c-0.5,0.7-0.5,1.7-0.5,2.6c0.2,3.4,0.3,6.9,0.5,10.3c0.1,1.3,0.2,2.6,1,3.6
		c0.6,0.8,1.7,1.2,2.6,1.2s2-0.1,3-0.2c0.8-2.7,1.7-5.4,2.5-8.1c0.6-1.9,1.2-4,0.4-5.9c-0.6-1.3-1.8-2.2-3.1-2.7
		c-1.3-0.5-2.9-0.3-4-0.9C82.6,212.1,81.8,211.4,81,212.5z"/>
	<path style="fill:#B7B7B7;" d="M97,215.5c-1.3-0.8-3-0.1-3.9,1.1c-0.9,1.2-1.2,2.7-1.4,4.2c-0.3,2.1-0.7,4.2-1,6.2
		c-0.2,1.5-0.5,3,0.1,4.4c0.5,1.4,1.8,2.4,3.2,3c1.4,0.6,2.9,0.7,4.4,0.8c4.3,0.3,8.6,0.5,12.9,0.6c2.8,0.1,5.7,0.1,8.5,0.2
		c0.8,0,1.7,0,2.2-0.7c0.3-0.5,0.3-1.1,0.3-1.7c-0.3-4.4-0.6-8.7-1-13.1c0-0.5-0.1-1-0.3-1.4c-0.5-1.1-2-1.5-3.2-1.5
		c-2.7-0.2-5.5,0.3-8.2,0.5c-4.9,0.2-9.8-0.7-14.2-2.8"/>
	<path style="fill:#B7B7B7;" d="M136,219.8c-2.8-0.3-5.6-0.5-8.4-0.8c-0.6-0.1-1.3-0.1-1.9,0.1c-1.1,0.5-1.5,1.9-1.6,3.1
		c-0.3,3.1,0,6.2,0.9,9.2c0.6,2.1,1.5,4.4,3.6,5.3c1.4,0.6,2.9,0.5,4.4,0.5c4.2-0.1,8.3-0.3,12.5-0.4c1.1,0,2.3-0.1,3.3-0.6
		s1.7-1.8,1.3-2.8c-0.8-2.1-0.5-4.5-0.2-6.8c0.2-1.2,0.4-2.3,0.4-3.5c0-1.2-0.3-2.4-1.1-3.2c-0.9-1-2.4-1.3-3.7-1.4
		C142.4,218.2,139.2,220.1,136,219.8z"/>
	<path style="fill:#B7B7B7;" d="M155.8,217.3c-1.3,0.2-2.6,0.9-3.3,2c-0.8,1.3-0.7,2.9-0.6,4.4c0.2,2.9,0.5,5.8,0.7,8.8
		c0.1,1.2,0.3,2.5,1.2,3.3c0.8,0.7,2,0.8,3.1,0.8c2,0,3.9,0.1,5.9,0.1c1.3,0,2.8,0,3.9-0.7c1.2-0.8,1.8-2.3,1.8-3.7
		c0-1.4-0.4-2.8-0.9-4.2s-1-2.7-1.1-4.2c-0.1-1.8,0.4-3.7-0.6-5.2c-0.6-0.9-1.7-1.5-2.8-1.7c-1.2-0.2-2.3,0-3.5,0.2
		C158.4,217.5,157,217.1,155.8,217.3z"/>
	<path style="fill:#B7B7B7;" d="M168.1,220c-0.1,3.4,0.9,6.8,1.9,10.1c0.3,1.1,0.7,2.2,1.3,3.2c0.6,1,1.4,1.9,2.4,2.4
		c1.6,0.8,3.5,0.5,5.2,0.1c1.8-0.3,3.5-0.6,5.3-1c0.8-0.1,1.6-0.3,2.2-0.7c1-0.6,1.5-1.8,1.7-2.9s0.1-2.3,0.1-3.5
		c0-1.7,0.3-3.5,0.7-5.1c0.3-1.1,0.7-2.3,0.9-3.4c0.2-1.2,0.2-2.4-0.4-3.5c-0.8-1.5-2.6-2.4-4.3-2.5c-1.7-0.1-3.4,0.4-5.1,0.8
		c-2.3,0.6-4.5,1.3-6.8,1.9c-1.3,0.4-3,0.1-4.1,1.1C168.4,217.8,168.1,218.9,168.1,220z"/>
	<path style="fill:#B7B7B7;" d="M144.1,208.2c-0.7,0.7-1.1,1.7-1.5,2.6c-0.5,1.1-1,2.3-1.4,3.4c-0.3,0.6-0.5,1.3-0.2,1.9
		c0.4,0.6,1.3,0.7,2,0.6c2.1-0.1,4.1-0.2,6.2-0.4c1.1-0.1,2.3-0.2,3-0.9c0.7-0.7,0.9-1.9,0.6-2.9c-0.3-1-0.9-1.8-1.7-2.6
		C149.4,208.3,146.5,205.8,144.1,208.2z"/>
	<path style="fill:#B7B7B7;" d="M201.4,213.2c-0.4-0.3-0.7-0.6-1-0.9c-0.3,0.1-0.6,0.2-1,0.3c-1.2,0.2-2.5,0.2-3.8,0.3
		c-1.3,0.2-2.6,0.6-3.3,1.7c-0.5,0.7-0.6,1.5-0.8,2.3c-0.7,3.7-1.2,7.5-1.5,11.3c-0.1,0.9-0.1,1.9,0.4,2.7c0.5,0.7,1.4,1.1,2.3,1.1
		c0.9,0,1.7-0.2,2.6-0.4c2.4-0.7,4.7-1.3,7.1-2c0-0.8,0.1-1.6,0.1-2.4C202.7,222.4,202.9,217.6,201.4,213.2z"/>
	<path style="fill:#5A4A4B;" d="M209.4,221.8c0-2.6,0-5.1,0-7.7c0-1.1-0.1-3-1.3-3.6c-1.3-0.6-3.1-0.1-4.4,0.4
		c-1.1,0.4-2.1,1-3.2,1.3c0.3,0.3,0.6,0.7,1,0.9c1.5,4.4,1.3,9.2,1.1,13.8c0,0.8-0.1,1.6-0.1,2.4c0.8-0.2,1.7-0.5,2.5-0.7
		c1.1-0.3,2.3-0.6,3.1-1.4c0.7-0.7,1.1-1.6,1.3-2.5C209.4,223.7,209.4,222.8,209.4,221.8z"/>
	<path style="fill:#C2C1C1;" d="M189.9,192.6c0.1-2.1,0.3-4.3-0.2-6.4c-0.4-2.1-1.5-4.1-3.3-5.3c-0.8-0.5-1.8-0.9-2.8-1.1
		c-3.2-0.7-6.6-0.4-10-0.7c-3.3-0.2-6.8-1.2-8.9-3.8c-1.7-2.1-3-4.3-4.2-6.6H78.2v18c0,5.5,29.9,10,66.8,10c18,0,34.4-1.1,46.4-2.8
		c-0.1,0-0.3,0-0.4-0.1C190.4,193.8,189.8,193.3,189.9,192.6z"/>
	<path style="fill:#898989;" d="M160.5,168.8c1.1,2.3,2.5,4.5,4.2,6.6c2.1,2.6,5.6,3.5,8.9,3.8c3.3,0.2,6.7-0.1,10,0.7
		c1,0.2,2,0.5,2.8,1.1c1.8,1.1,2.9,3.2,3.3,5.3c0.4,2.1,0.3,4.2,0.2,6.4c0,0.6,0.5,1.1,1.1,1.3c0.1,0,0.3,0.1,0.4,0.1
		c12.5-1.8,20.3-4.3,20.3-7.2v-18H160.5z"/>
	<path style="fill:#CECCCC;" d="M173.7,184.7c-0.7,3.5-5.8,9.1-34.5,8.5c-28.7-0.5-51.3-4.4-54.9-5.9c-3.5-1.5-3.6-5.2-3.6-5.2
		s-0.4-4.9,0-6.4c0.4-1.5,3.1-0.8,3.1-0.8s9.2,3,36.4,5.5C147.6,183.1,174.4,181.2,173.7,184.7z"/>
	<ellipse style="fill:#B6B3AD;" cx="145" cy="168.8" rx="66.8" ry="10"/>
	<ellipse style="fill:#634E4E;" cx="145" cy="168.2" rx="50" ry="7.4"/>
	<path style="fill:#B6B3AD;" d="M129.4,165.5c0,1,0,1.9-0.1,2.9C129.4,167.4,129.4,166.5,129.4,165.5z"/>
	<path style="fill:#B6B3AD;" d="M129.2,171.2c0.1-0.8,0.1-1.7,0.1-2.5C129.3,169.5,129.3,170.4,129.2,171.2z"/>
	<path style="fill:#B6B3AD;" d="M129.1,172.5c0,0.5-0.1,1-0.1,1.6C129.1,173.5,129.1,173,129.1,172.5z"/>
	<path style="fill:#B6B3AD;" d="M145,175.7c1.2,0,2.4,0,3.6,0c-0.2-0.8-0.3-1.6-0.4-2.4c-0.5-4-0.2-8,1.1-11.8
		c-3.5-0.2-5.3-0.3-5.7-0.2c-0.8,0.1-1.9,0.2-3.2,0.4c0,4.7,0.1,9.4,0.1,14C142,175.7,143.5,175.7,145,175.7z"/>
	<path style="fill:#C2C1C1;" d="M140.5,175.6c0-4.7-0.1-9.4-0.1-14c-1.5,0.2-3.2,0.6-5.2,1.3c-0.4,0.1-0.8,0.3-1.1,0.4
		c0,4.1,0,8.2,0,12.2C136.2,175.6,138.4,175.6,140.5,175.6z"/>
	<path style="fill:#B6B3AD;" d="M129.3,168.7c0,0.8-0.1,1.7-0.1,2.5c0,0,0,0,0,0c0,0.4-0.1,0.8-0.1,1.3c0,0.5-0.1,1-0.1,1.6
		c0,0.4-0.1,0.8-0.1,1.2c1.7,0.1,3.4,0.2,5.2,0.2c0-4.1,0-8.2,0-12.2c-1.9,0.7-3.2,1.4-3.6,1.6c-0.2,0.1-0.6,0.3-1.1,0.6
		c0,1,0,1.9-0.1,2.9C129.4,168.5,129.4,168.6,129.3,168.7z"/>
	<path style="fill:#C2C1C1;" d="M148.2,173.3c0.1,0.8,0.3,1.6,0.4,2.4c1.2,0,2.4,0,3.6-0.1c-0.4-2.1-1-4.2-1.2-6.3
		c-0.2-2.6,0.1-5.2,0.8-7.7c-0.9,0-1.8-0.1-2.6-0.1C148,165.3,147.6,169.3,148.2,173.3z"/>
	<path style="fill:#C2C1C1;" d="M160.3,175.3c-0.2-1.7-0.3-3.3-0.5-5c0-0.2,0-0.4-0.1-0.6c-0.2-1.8-0.3-3.6-0.5-5.4
		c-0.1-0.6-0.1-1.2-0.2-1.7c-1.3-0.6-2.6-0.8-3.9-0.9c0.2,4.6,0.5,9.1,0.7,13.7C157.4,175.4,158.9,175.4,160.3,175.3z"/>
	<path style="fill:#B6B3AD;" d="M151,169.3c0.2,2.1,0.8,4.2,1.2,6.3c1.2,0,2.5-0.1,3.7-0.1c-0.2-4.6-0.5-9.1-0.7-13.7
		c-0.3,0-0.7,0-1-0.1c-0.8,0-1.6-0.1-2.3-0.1C151.1,164.1,150.8,166.7,151,169.3z"/>
	<path style="fill:#9D9485;" d="M129.2,171.2C129.2,171.2,129.2,171.2,129.2,171.2c0.1-0.9,0.1-1.7,0.1-2.6c0-0.1,0-0.2,0-0.3
		c0-1,0-1.9,0.1-2.9c-1,0.6-2.4,1.5-4,2.9c-1.5,1.2-4.1,3.4-5.7,6.2c1.8,0.2,3.7,0.3,5.7,0.4L129.2,171.2z"/>
	<path style="fill:#B6B3AD;" d="M129.3,168.7c0-0.1,0-0.2,0-0.3C129.4,168.5,129.4,168.6,129.3,168.7z"/>
	<polygon style="fill:#B6B3AD;" points="129.2,171.2 129.2,171.2 129.2,171.2 	"/>
	<path style="fill:#C2C1C1;" d="M129.1,172.5c0-0.4,0.1-0.8,0.1-1.3l-3.8,3.8c1.1,0.1,2.3,0.1,3.5,0.2c0-0.4,0.1-0.8,0.1-1.2
		C129.1,173.5,129.1,173,129.1,172.5z"/>
	<path style="fill:#B6B3AD;" d="M128.9,175.3L128.9,175.3c0-0.4,0.1-0.8,0.1-1.2C129,174.4,128.9,174.9,128.9,175.3z"/>
	<path style="fill:#B6B3AD;" d="M129.2,171.2L129.2,171.2c0,0.4-0.1,0.8-0.1,1.3C129.2,172.1,129.2,171.6,129.2,171.2z"/>
	<path style="fill:#837273;" d="M164.6,175.1c-1.4-1.9-3-3.7-4.8-5.3c0.2,1.8,0.3,3.7,0.5,5.5C161.8,175.2,163.2,175.2,164.6,175.1z
		"/>
	<path style="fill:#B6B3AD;" d="M159.8,170.4c0.2,1.7,0.3,3.3,0.5,5l0,0c-0.2-1.8-0.3-3.7-0.5-5.5l0,0
		C159.8,170,159.8,170.2,159.8,170.4z"/>
	<path style="fill:#9D9485;" d="M167.8,172c-1.3-2.9-3.1-4.6-5.1-6.6c-1.8-1.7-2.8-2.3-3.3-2.5c-0.1,0-0.2-0.1-0.3-0.1
		c0.1,0.6,0.1,1.2,0.2,1.7c0.2,1.8,0.3,3.6,0.5,5.4c1.8,1.6,3.4,3.4,4.8,5.3c1.4-0.1,2.8-0.2,4.2-0.3c0-0.1-0.1-0.2-0.1-0.4
		C168.5,173.6,168.2,172.8,167.8,172z"/>
	<path style="fill:#B6B3AD;" d="M159.8,169.8c-0.2-1.8-0.3-3.6-0.5-5.4C159.4,166.2,159.6,168,159.8,169.8L159.8,169.8z"/>
	<path style="fill:#C2C1C1;" d="M163.4,139.1c0-10.3-8.3-18.6-18.6-18.6c-10.3,0-18.6,8.3-18.6,18.6c0,8.6,5.9,15.9,13.9,18
		c-0.2,0.5-0.2,0.9-0.2,1.4v1.4c0,2.5,2,4.5,4.5,4.5h0.5c2.5,0,4.5-2,4.5-4.5v-1.4c0-0.5-0.1-0.9-0.2-1.3
		C157.3,155.2,163.4,147.9,163.4,139.1z"/>
	<path style="fill:#B6B3AD;" d="M151.2,117.3c0,0,0.4-1.2-1.7-2.3s-6.7-0.2-8.2,0c-1.5,0.2-6.4,1.4-7.2,1.9
		c-0.8,0.5-3.6,1.8-4.6,3.3c-1,1.5-2.3,3-3,4.6c-0.7,1.6-2.3,6-2.7,7c-0.4,1-1,4-0.9,5.1s0.8,5.1,1.1,5.5s1.5,1.5,1.6,1.8
		c0.1,0.4,0.2,2.5,0.9,2.7c0.7,0.1,0.8-3.3,1-3.3c0.2,0,1.1,2.5,1.5,2.5s-0.3-7.6,0.1-7.7c0.4-0.1,0.8,4.2,1.2,4.3
		c0.4,0.1,3-7.5,3.6-7.5c0.7,0-0.5,3,0.1,3.1s6.2-8.4,7-7.6c0.9,0.8-3.9,4.9-3.7,5.5s8.9-3.7,10-4.5c1.1-0.8,2-2.8,2.2-2.8
		c0.3,0-0.1,2.5,1,3.1c1,0.6,3.7,2.9,4.3,3.7c0.5,0.8,1.1,2.7,1.5,2.7s-0.3-3.7,0-4c0.3-0.3,1.9,2.3,2.1,3.3s-0.1,3.5,0.3,3.5
		c0.3,0,0.8-3.6,1-3.5c0.3,0.1,0.3,7.3,0.8,7.7c0.4,0.4,1-3.2,1.4-3.3c0.3-0.1,3.1,3.2,3.8,3.1c0.7-0.1-0.4-3.9,0.4-4.6
		c0.8-0.7,1.1-6,1-7.6s-2.4-3.6-2.4-3.6l1.7,1.3c0,0-0.8-4.9-2.4-6.6c-1.6-1.6-5.2-5.4-7.2-6C154.7,117.5,153.8,116.5,151.2,117.3z"
		/>
	<ellipse style="fill:#5A4A4B;" cx="136.1" cy="146.7" rx="1.1" ry="1.5"/>
	<ellipse style="fill:#5A4A4B;" cx="154.4" cy="146.9" rx="1.1" ry="1.5"/>
	<path style="fill:#5A4A4B;" d="M135.8,140.6c-0.4,0.2-0.8,0.5-1.1,0.9c-0.1,0.2-0.2,0.4-0.1,0.5c0.1,0.1,0.2,0.1,0.4,0.1
		c0.1,0,0.3-0.1,0.4-0.2c0.7-0.4,1.5-0.5,2.2-0.4c0.1,0,0.3,0,0.4,0c0.2-0.1,0.2-0.3,0.2-0.5c-0.1-0.5-0.4-0.8-0.9-1
		C136.8,140,136.2,140.4,135.8,140.6z"/>
	<path style="fill:#5A4A4B;" d="M153.1,141c0.2-0.3,0.5-0.4,0.9-0.4c0.3,0,0.7,0.1,1,0.3c0.5,0.3,1,0.6,1.4,1.1c0,0,0.1,0.1,0.1,0.1
		c0,0.1,0,0.1,0,0.2c0,0-0.1,0-0.1,0c-0.5,0-0.9-0.1-1.4-0.2c-0.5-0.1-0.9-0.2-1.4,0c-0.1,0.1-0.2,0.1-0.4,0.1
		C152.6,142.2,153,141.2,153.1,141z"/>
	<path style="fill:#5A4A4B;" d="M146.8,150.2c-0.1,0-0.4,0.2-0.4,0.2c0,0-0.1,0-0.1,0c0,0-0.4-0.1-0.4-0.2c-0.1,0-0.5-0.2-0.5-0.5
		l0,0c0-0.2,0.3-0.5,0.5-0.5s0.4,0.2,0.4,0.2c0.1,0,0.1,0,0.2,0c0,0,0.2-0.2,0.4-0.2c0.2,0,0.5,0.2,0.5,0.5l0,0
		C147.2,150,146.9,150.2,146.8,150.2z"/>
	<path style="fill:#5A4A4B;" d="M149.5,153.1c-0.3-0.3-0.7-0.3-1,0c-0.1,0.4-0.2,0.7-0.5,1c-0.3,0.3-0.7,0.5-1.1,0.5
		c-0.4,0.1-0.8,0-1.2,0c-0.4,0-0.7,0-1.1-0.2c-0.4-0.1-0.7-0.3-0.9-0.6c-0.1-0.2-0.2-0.5-0.2-0.8c0,0-0.1,0-0.1-0.1
		c-0.3-0.3-0.7-0.3-1,0c-0.3,0.3-0.3,0.7,0,1c0.4,0.4,1.5,1.4,3.2,1.6c0.1,0,0.3,0,0.4,0c1.8,0,3.1-1.1,3.4-1.4
		C149.7,153.8,149.7,153.3,149.5,153.1z"/>
	<path style="fill:#837273;" d="M143.7,153.8c0.2,0.3,0.5,0.5,0.9,0.6c0.4,0.1,0.7,0.1,1.1,0.2c0.4,0,0.8,0.1,1.2,0
		c0.4-0.1,0.8-0.2,1.1-0.5c0.3-0.3,0.4-0.6,0.5-1c0,0,0,0,0,0c-0.2,0.2-1.9,0.8-2.7,0.8c-0.6,0-1.8-0.6-2.2-0.9
		C143.6,153.3,143.6,153.6,143.7,153.8z"/>
	<path style="fill:#A8A0A0;" d="M330,91.7v7.8c0,0-8.8,3.6-10.1,3.8c-1.3,0.2-10.6,1.9-11.8,3.3c-1.3,1.4-4.6,4.6-4.9,6.5
		s0.2,14,0,15.7c-0.2,1.8-0.2,11.7-0.9,13.3c-0.6,1.7-2.1,10.3-2.1,12.1c0,1.8-0.6,28.5-0.2,29c0.4,0.6,5.4,6.3,5.8,6.6
		c0.4,0.3,5.8,2.9,6.4,2.5c0.6-0.4,2.1-1.2,1.6-2.6s-3.4-6.7-3.4-7.9c0-1.2,0.4-3.6-1-5s-3.2-2.2-3.2-3.1s-0.2-6.3,0.3-7.6
		c0.5-1.2,5.6-15.5,5.8-16.4c0.2-0.9-0.1-8.9,0.5-9.8c0.6-1,3.9-10.9,4.1-12.2c0.2-1.2-2.5-7-2.5-7s6,13.2,6,15.9
		c-0.1,2.8-0.4,10.8-1.9,13.2c-1.5,2.4-3.9,15.6-3.9,21.5s0.3,17.8,1,21.7s3.9,16.4,3.9,18.2c0.1,1.8,0.8,9,0.2,10.4
		c-0.6,1.4-2.6,11.2-2.6,13.4s3.6,19.1,4.2,21.6c0.6,2.5,2,10,1.8,11.2c-0.2,1.2,0.4,3.8,0.2,4.7c-0.2,0.9-3.9,9.6-3.9,11.5
		s3.5,5.5,5.6,5.9s6.2-0.7,7.5-2.2c1.3-1.5-1.6-12.9-1.2-14.3c0.4-1.4-0.9-13-0.9-14.8s2-21.7,2-22.8c0-1.2,1-13.8,1.9-17.2
		c0.8-3.4-0.8-16.4-0.8-18c0-1.6,1.2-18.1,1.6-19.8c0.4-1.8,0.6-8.4,0.6-8.4h3.6c0,0,0.3,14,1,15.3c0.7,1.3,0.6,16.5,0,18.3
		c-0.6,1.8-0.9,8.5-0.4,10.3c0.5,1.7,2.3,10.9,2.3,12.4c-0.1,1.5,0.7,10.8,1,12.5c0.2,1.8,1.1,9.2,1.3,11.5s1,10.7,0.5,12.1
		c-0.5,1.4-0.8,6.5-1,7.9c-0.2,1.5-1.7,9.8-1.7,10.9s0.2,4.4,1.1,5c1,0.6,3.6,1.6,5.6,1.4s5.7-1.9,6.4-3.3
		c0.7-1.4-2.9-15.4-2.9-15.4s-0.2-11.1,0.7-14.3s5.4-16.9,5.1-22.5c-0.3-5.5-3.6-16.1-3.6-18.6c0-2.6,4.8-20.7,4.8-22.8
		s1.5-19.6,1.3-21.4c-0.2-1.8-1.7-14.3-3.4-18c-1.7-3.7-4.7-14.8-3.9-16.8c0.7-2,5.1-15.6,6-16c0,0-3.1,5.3-2.2,7.4
		s4.5,12.4,4.4,14.2s0.4,9,1.2,10.6s3.9,9.7,3.9,10.6c0,0.9,1.5,5.7,1.3,7.4c-0.2,1.7-3.2,4.4-3.9,5.9s-1.1,6.2-1.6,7.1
		c-0.5,0.9-1.9,1.7-1.9,3.9s1.1,4.2,2.2,4c1-0.2,10.9-6.3,11-8.8c0.2-2.5,0.2-22.9,0-24c-0.2-1.1-0.6-12.1-1-13.8
		c-0.4-1.7-1.3-9.6-1.8-12.7c-0.5-3.1-0.2-15.6-0.1-16.9c0.1-1.3,0.5-3.8-1-5.5c-1.5-1.8-4.4-4.2-7.8-5.2s-17.7-5.9-17.7-5.9
		l-0.2-7.8H330z"/>
	<circle style="fill:#908F87;" cx="338.1" cy="70.4" r="27"/>
	<path style="fill:#DDDDDD;" d="M351.8,65.2H322c-2.4,0-4.3-1.9-4.3-4.3v0c0-2.4,1.9-4.3,4.3-4.3h29.8c2.4,0,4.3,1.9,4.3,4.3v0
		C356.2,63.2,354.2,65.2,351.8,65.2z"/>
	<path style="fill:#919192;" d="M306.9,67.8c4.5-0.7,9.3,0.4,13,3.1l0.2-4.7c-3.5-2.2-7.4-3.8-11.5-4.7L306.9,67.8z"/>
	<path style="fill:#C7C6C6;" d="M308.7,61.4l-0.1,0.2c4.1,0.9,8,2.5,11.5,4.7l0.2-3.5c-3.3-1.9-6.8-3.5-10.3-4.9
		C309.4,59,309,60.2,308.7,61.4z"/>
	<path style="fill:#919192;" d="M313.1,52.4c-1.2,1.7-2.3,3.5-3.1,5.5c3.6,1.4,7,3,10.3,4.9l0-0.3c0-0.8,0.2-1.5,0.6-2.1
		C319.3,56.9,316.5,54.1,313.1,52.4z"/>
	<path style="fill:#C7C6C6;" d="M315.4,49.7c-0.8,0.8-1.6,1.7-2.3,2.7c3.4,1.7,6.2,4.5,7.8,8c0.3-0.6,0.7-1.1,1.1-1.5
		C321,55.2,318.6,51.9,315.4,49.7z"/>
	<path style="fill:#919192;" d="M331.5,41.7c-1.9,0.2-3.8,0.7-5.6,1.3c-0.4,4.9,0.4,10,2.2,14.6h4.5C331.2,52.4,330.9,47,331.5,41.7
		z"/>
	<path style="fill:#919192;" d="M322.2,44.6c-2.5,1.3-4.8,3.1-6.8,5.1c3.2,2.1,5.6,5.4,6.6,9.1c0.7-0.6,1.6-1.1,2.6-1.2
		C322.9,53.5,322,49.1,322.2,44.6z"/>
	<path style="fill:#C7C6C6;" d="M334.9,41.5c-1.1,0-2.2,0.1-3.3,0.2c-0.7,5.3-0.3,10.7,1,15.9h2.7C335.2,52.2,335,46.8,334.9,41.5
		L334.9,41.5z"/>
	<path style="fill:#C7C6C6;" d="M326,43c-1.3,0.5-2.6,1-3.8,1.6c-0.1,4.4,0.7,8.9,2.3,13c0.3,0,0.6-0.1,0.9-0.1h2.7
		C326.3,52.9,325.6,47.9,326,43z"/>
	<path style="fill:#919192;" d="M300.8,90l-1.5,5.2c6.5-0.6,13.2,0.1,19.4,2.1l0.2-5.7C313.1,89.9,306.9,89.4,300.8,90z"/>
	<path style="fill:#C7C6C6;" d="M299.3,95.2l-1.2,4.4c6.8-1.4,14-0.9,20.5,1.6l0.2-3.9C312.5,95.4,305.8,94.7,299.3,95.2z"/>
	<path style="fill:#919192;" d="M340.1,41.5h-5.2c0.1,5.4,0.3,10.7,0.4,16.1h4C339,52.2,339.2,46.8,340.1,41.5z"/>
	<path style="fill:#C7C6C6;" d="M306.9,67.8l-1,3.5c4.8,0.2,9.5,1.4,13.8,3.6l0.2-4C316.2,68.3,311.4,67.1,306.9,67.8z"/>
	<path style="fill:#919192;" d="M298.1,99.7l-0.1,0.4c-1,3.6,1.7,7.2,5.5,7.2h11.9c1.7,0,3.1-1.4,3.1-3.1l0.1-2.9
		C312.1,98.8,304.9,98.2,298.1,99.7z"/>
	<path style="fill:#919192;" d="M304.1,78.1c5.2-1,10.6-0.4,15.5,1.6l0.2-4.7c-4.3-2.2-9-3.4-13.8-3.6L304.1,78.1z"/>
	<path style="fill:#C7C6C6;" d="M301.6,87.2l-0.8,2.8c6.1-0.6,12.3-0.1,18.2,1.7l0.1-1.8C313.6,87.5,307.5,86.6,301.6,87.2z"/>
	<path style="fill:#919192;" d="M303,81.9l-1.5,5.3c5.9-0.6,12,0.3,17.5,2.7l0.3-6.4C314.2,81.5,308.5,81,303,81.9z"/>
	<path style="fill:#C7C6C6;" d="M304.1,78.1l-1.1,3.8c5.5-0.9,11.2-0.3,16.3,1.6l0.2-3.8C314.7,77.6,309.2,77,304.1,78.1z"/>
	<path style="fill:#919192;" d="M371.7,86.4l-1.5-5.4c-2.9,0.3-5.8,0.5-8.7,0.8c-2.3,0.2-4.9,0.6-6.7,1.9l0.3,5.1
		C360.4,86.7,366.1,85.9,371.7,86.4z"/>
	<path style="fill:#C7C6C6;" d="M370.2,80.9l-1-3.7c-5,0-10,0.9-14.7,2.5l0.2,3.9c1.8-1.4,4.4-1.7,6.7-1.9
		C364.4,81.5,367.3,81.2,370.2,80.9z"/>
	<path style="fill:#919192;" d="M367.5,70.7c-4.6,0.2-9.1,1.3-13.2,3.4l0.3,5.6c4.7-1.6,9.7-2.5,14.7-2.5L367.5,70.7z"/>
	<path style="fill:#C7C6C6;" d="M371.7,86.4c-5.6-0.5-11.4,0.4-16.6,2.4l0.2,3.3c5.6-1.6,11.5-2.4,17.3-2.5L371.7,86.4z"/>
	<path style="fill:#C7C6C6;" d="M366.6,67.4c-3.6,0.1-7.2,0.8-10.6,2c-0.7,0.2-1.4,0.6-2,1l0.2,3.7c4.1-2.1,8.7-3.2,13.2-3.4
		L366.6,67.4z"/>
	<path style="fill:#919192;" d="M372.6,89.5c-5.8,0.1-11.7,0.9-17.3,2.5l0.3,5.4c6.1-0.9,12.3-1.7,18.4-2.6L372.6,89.5z"/>
	<path style="fill:#C7C6C6;" d="M342.9,41.5h-2.8c-0.8,5.3-1.1,10.7-0.7,16.1h2.7c0.2-5.4,0.8-10.8,1.9-16.1
		C343.6,41.5,343.2,41.5,342.9,41.5z"/>
	<path style="fill:#C7C6C6;" d="M375,98.6l-1-3.8c-6.1,0.9-12.3,1.7-18.4,2.6l0.2,3.8C362,99.4,368.5,98.5,375,98.6z"/>
	<path style="fill:#919192;" d="M375,98.6c-6.5-0.1-13,0.8-19.2,2.6l0.2,3c0,1.7,1.4,3.1,3.1,3.1H370c3.8,0,6.5-3.6,5.5-7.2
		L375,98.6z"/>
	<path style="fill:#C7C6C6;" d="M350,42.7c-2.4,4.6-3.8,9.7-4.1,14.9h2.5c0.2,0,0.4,0,0.6,0c0.6-4.7,2.2-9.3,4.7-13.3
		C352.6,43.7,351.3,43.1,350,42.7z"/>
	<path style="fill:#919192;" d="M343.9,41.5c-1.1,5.3-1.7,10.7-1.9,16.1h3.8c0.3-5.2,1.7-10.3,4.1-14.9
		C348.1,42,346,41.6,343.9,41.5z"/>
	<path style="fill:#919192;" d="M359.3,49c-1.6-1.8-3.5-3.4-5.6-4.6c-2.5,4-4.1,8.6-4.7,13.3c1.3,0.2,2.5,0.8,3.3,1.8
		c0.1-2.1,0.5-4.1,1.4-6C354.8,51.2,356.8,49.3,359.3,49z"/>
	<path style="fill:#C7C6C6;" d="M365.2,62.2l-1.1-4c-3.4,0.8-6.6,2.2-9.6,3.9c-0.3,0.2-0.7,0.4-1,0.7l0.2,3.5c1.8-1.1,3.8-2,5.8-2.7
		C361.4,62.8,363.2,62.3,365.2,62.2z"/>
	<path style="fill:#C7C6C6;" d="M356.8,55.7c1.5-1.3,3.2-2.4,4.9-3.4c-0.7-1.2-1.5-2.3-2.4-3.3c-2.5,0.3-4.5,2.2-5.6,4.5
		c-0.9,1.8-1.2,3.9-1.4,6c0.3,0.3,0.5,0.7,0.7,1.1C353.9,58.6,355.2,57,356.8,55.7z"/>
	<path style="fill:#919192;" d="M366.6,67.4l-1.4-5.3c-1.9,0.2-3.8,0.7-5.6,1.3c-2,0.7-4,1.7-5.8,2.7l0.2,4.2c0.6-0.4,1.3-0.8,2-1
		C359.4,68.2,363,67.6,366.6,67.4z"/>
	<path style="fill:#919192;" d="M364.1,58.1l-0.2-0.6c-0.5-1.9-1.3-3.6-2.2-5.2c-1.7,1-3.4,2.1-4.9,3.4c-1.5,1.3-2.9,2.9-3.7,4.8
		c0.3,0.6,0.5,1.2,0.5,1.9l0,0.3c0.3-0.2,0.6-0.5,1-0.7C357.5,60.3,360.7,59,364.1,58.1z"/>
	<circle style="fill:#231815;" cx="326.3" cy="73.6" r="1.8"/>
	<circle style="fill:#231815;" cx="347.2" cy="73" r="1.8"/>
	<ellipse style="fill:#DCDBDB;" cx="337" cy="78.1" rx="5.6" ry="3"/>
	<ellipse style="fill:#2D2D2D;" cx="335.1" cy="78.1" rx="0.8" ry="1.5"/>
	<ellipse style="fill:#2D2D2D;" cx="339" cy="78.1" rx="0.8" ry="1.5"/>
	<path style="fill:#2D2D2D;" d="M337.2,88.5c-3.4,0-5.9-1.4-7.1-2.3c-0.2-0.2-0.3-0.5-0.1-0.8c0.2-0.2,0.5-0.3,0.8-0.1
		c1.1,0.8,3.4,2.1,6.5,2.1c3.6,0,6.2-1.9,7.1-2.7c0.2-0.2,0.6-0.2,0.8,0.1c0.2,0.2,0.2,0.6-0.1,0.8c-1,0.9-3.8,2.9-7.8,3
		C337.2,88.5,337.2,88.5,337.2,88.5z"/>
	<path style="fill:#666767;" d="M361.6,200.5h-7.7c-1.9,0-3.8-0.7-5.4-2l-0.4-0.3c-1.1-0.9-2.3-1.3-3.6-1.3h-13.8
		c-1.1,0-2.1,0.3-3.1,1l-1.8,1.2c-1.5,1-3.1,1.5-4.7,1.5h-8.8c-1.6,0-2.8-2-2.5-4.1l5.7-36.7h43.6l5,36.8
		C364.4,198.6,363.2,200.5,361.6,200.5z"/>
	<path style="fill:#8C8483;" d="M342.9,201.3h-11.3c-1.8,0-8-1.5-7.9-3.4l2.5-36.5h22l3.3,36.4C351.7,199.7,344.8,201.3,342.9,201.3
		z"/>
	<polygon style="fill:#CBBFCC;" points="347.3,198.4 328.5,198.4 330.5,162.1 344.8,162.1 	"/>
	<path style="fill:#8E8988;" d="M338.5,173.3l3.8-5.2l-4.6-6.5l-4.6,6.5l3.8,5.2l-3.8,5.2l3.8,5.2L333,189l4.6,6.5l4.6-6.5l-3.8-5.2
		l3.8-5.2L338.5,173.3z M334.4,168.1l3.3-4.5l3.3,4.5l-3.1,4.3l-0.2,0.3l-0.2-0.3L334.4,168.1z M340.9,189l-3.3,4.5l-3.3-4.5
		l3.1-4.3l0.2-0.3l0.2,0.3L340.9,189z M337.8,182.8l-0.2,0.3l-0.2-0.3l-3.1-4.3l3.1-4.3l0.2-0.3l0.2,0.3l3.1,4.3L337.8,182.8z"/>
	<path style="fill:#8D8B8B;" d="M358,162.9h-41.7c-0.8,0-1.5-0.8-1.4-1.7l0.6-5.1c0.1-0.8,0.7-1.3,1.4-1.3h40.8
		c0.7,0,1.4,0.6,1.4,1.4l0.3,5.1C359.5,162.2,358.9,162.9,358,162.9z"/>
	<path style="fill:#DDDDDD;" d="M103,297.2l4.8-0.7c0,0,1.2,6.4,2.5,6.7c1.3,0.3,2.5-6.5,3.6-6.7c1.2-0.2,14.4,0,15.8,1.2
		s1.1,10,1.1,10L146.6,450l11.7,29.2c0,0-2.2,15.9-4.1,15.6s-1.4-1.2-3.4-1.3c-2-0.1-6.8,3.5-11.3,3.6c-4.5,0.1-5.9-1.8-7.9-1.8
		c-1.9,0-8.5,2.2-13.1,2.1c-4.6-0.1-6.8-2.5-9.7-2.7c-3-0.2-10.2,2.5-14.5-0.4c-4.3-2.9-6.1-10.9-6.1-10.9l2.4-174.6L103,297.2z"/>
	<path style="fill:#A3A3A3;" d="M95.9,450.6c-0.5-1.4-1.1-3.2-1.6-5H70.1c-0.6,3.7-1,6.6-1.1,7.6c-0.1,1-0.5,3.8-1,7.6h29.1
		C96.9,457,96.5,452.5,95.9,450.6z"/>
	<path style="fill:#848484;" d="M65.3,484.2h30.6c0.3-2.5,0.6-6.1,0.9-9.6H66.3C65.8,478.1,65.5,481.5,65.3,484.2z"/>
	<path style="fill:#757575;" d="M65.5,490.1c1.8,1.2,4.7,2.3,8.3,2.1c3.6-0.2,21.2-2.7,21.7-5.1c0.1-0.5,0.2-1.6,0.4-3H65.3
		C65.1,487.5,65.1,489.8,65.5,490.1z"/>
	<path style="fill:#B2B2B2;" d="M93.1,439.4c0-0.9,0.2-3.7,0.5-7.4H72.3c-0.8,4.8-1.6,9.7-2.2,13.5h24.1
		C93.6,443.3,93.1,441.1,93.1,439.4z"/>
	<path style="fill:#B2B2B2;" d="M103.8,307.7c-0.8-2.1-1.3-8.3-0.8-10.5c0,0-12.1,2.8-17.8,5.9c-5.6,3.1-12.1,5.9-15,8.7
		c0,0-0.1,0.1-0.1,0.1h34.4C104.4,310,104.1,308.5,103.8,307.7z"/>
	<path style="fill:#757575;" d="M31.7,351.5c0,0,15.3,10.7,17,11.1c1.7,0.5,4,1.5,6.9,0.9c2.8-0.6,5-3.1,7.8-6.8
		c2.1-2.9,6-7.6,8-10.3H33.9L31.7,351.5z"/>
	<path style="fill:#939393;" d="M97.4,465.3c0-1-0.1-2.7-0.2-4.6H68.1c-0.6,4-1.2,9.1-1.8,13.9h30.6
		C97.2,470.5,97.5,466.6,97.4,465.3z"/>
	<path style="fill:#757575;" d="M106,346.4H82c0.7,5.1,1.4,10.8,1.8,15.4h21.8C105.7,357.2,106,351.2,106,346.4z"/>
	<path style="fill:#848484;" d="M106,340.1c-0.1-1.5-0.1-3.2-0.2-5H80.2c0.4,2.7,1.1,6.9,1.7,11.4H106
		C106.1,343.8,106.1,341.5,106,340.1z"/>
	<path style="fill:#666666;" d="M105.3,367.5c0-1.2,0.1-3.3,0.2-5.7H83.8c0.3,3.5,0.3,6.4,0,8c-0.2,1.3-0.6,3.4-1.1,5.9h21.2
		C104.7,371.9,105.3,368.8,105.3,367.5z"/>
	<path style="fill:#939393;" d="M96.8,405.2H76.9c-0.7,3.5-1.2,6.4-1.5,8.2c-0.3,1.6-0.7,3.9-1.1,6.7h20.6
		C95.5,413.7,96.2,407.6,96.8,405.2z"/>
	<path style="fill:#757575;" d="M103.9,375.7H82.7c-0.7,3.8-1.7,8.8-2.7,13.9h20.8C101.9,384.8,103.1,379.8,103.9,375.7z"/>
	<path style="fill:#848484;" d="M96.8,405.2c0.6-2.3,2.2-8.7,3.9-15.6H80c-1.1,5.5-2.2,11.1-3.1,15.7L96.8,405.2
		C96.8,405.2,96.8,405.2,96.8,405.2z"/>
	<path style="fill:#848484;" d="M77.9,335.1H39l-5.1,11.4h37.4c0.6-0.8,1-1.4,1.2-1.7C73.2,343.6,76,338.5,77.9,335.1z"/>
	<path style="fill:#939393;" d="M79.7,331.7c0,0,0.2,1.3,0.6,3.3h25.6c-0.2-4.6-0.4-9.8-0.6-13.4H60.8c-3.7,4-7.1,7.9-7.7,8.7
		c0,0-6.8-5-8.5-7.9L39,335.1h38.8C78.9,333.2,79.7,331.7,79.7,331.7z"/>
	<path style="fill:#A3A3A3;" d="M105.2,320.4c-0.1-2.8-0.3-6-0.6-8.6H70.2c-1.5,1.5-5.6,5.8-9.4,9.9h44.4
		C105.2,321.2,105.2,320.8,105.2,320.4z"/>
	<path style="fill:#A3A3A3;" d="M94.8,420.1H74.2c-0.6,3.5-1.3,7.7-2,11.9h21.4C94,428.5,94.4,424.2,94.8,420.1z"/>
	<path style="fill:#757575;" d="M160.1,353.7c7.4,9.1,10.6,5.8,16.3,5.2c4-0.4,17.9-8,25.9-12.5h-48
		C155.4,347.9,157.2,350.2,160.1,353.7z"/>
	<path style="fill:#757575;" d="M115.4,346.4c0,4.3,0.3,9.6,0.9,15.4h33c0.8-6.7,1.6-12.3,2.1-15.4H115.4z"/>
	<path style="fill:#848484;" d="M171.3,492.2c2.1-0.4-1-11.5,0.7-13.5c1.7-2,13.5,0.3,15.4-0.7c0.7-0.4,0.5-1.7,0.1-3.5h-39
		C157.4,486.7,169.4,492.6,171.3,492.2z"/>
	<path style="fill:#B2B2B2;" d="M142.1,300.4c-6.4-4.1-12.4-2.6-12.4-2.6c-1.7,1-4.4,6.7-6.9,14h33.8
		C152.7,308.1,146.7,303.3,142.1,300.4z"/>
	<path style="fill:#A3A3A3;" d="M197.5,316.7c-0.8-1.7-1.1-1.2-3.7-1.4c-1.3-0.1-6.4,3.1-11.4,6.4h17.2
		C198.5,319.1,197.7,317.1,197.5,316.7z"/>
	<path style="fill:#666666;" d="M118,375.7h29.8c0.4-4.7,0.9-9.5,1.4-13.9h-33C116.8,366.2,117.4,370.9,118,375.7z"/>
	<path style="fill:#848484;" d="M115.4,344.3c0,0.7,0,1.4-0.1,2.1h36c0.2-1.4,0.4-2.3,0.5-2.3c0.4-0.3,0.6,0,2.4,2.3h48
		c3.4-1.9,5.7-3.3,5.7-3.3s-1.4-3.6-3.2-8.1h-88.2C116,338.4,115.6,341.6,115.4,344.3z"/>
	<path style="fill:#757575;" d="M120.1,389.5h26.8c0.2-4.2,0.5-9,0.9-13.9H118C118.7,380.2,119.4,384.9,120.1,389.5z"/>
	<path style="fill:#939393;" d="M145.2,469.6c1,1.8,2.1,3.4,3.2,5h39c-0.6-2.7-1.7-6.3-0.8-8.8c1-2.9,4.1-3.9,5.9-5.1h-52.3
		C142,463.8,143.6,466.8,145.2,469.6z"/>
	<path style="fill:#A3A3A3;" d="M164.6,321.7c-1.8-2.4-3.5-4.8-4.4-6.1c-0.7-0.9-1.9-2.3-3.5-3.8h-33.8c-1.1,3.1-2.1,6.5-3.1,9.9
		H164.6z"/>
	<path style="fill:#939393;" d="M116.6,335.1h88.2c-1.7-4.4-3.8-9.6-5.3-13.4h-17.2c-5.4,3.5-10.7,7.1-11.5,6.9
		c-1-0.1-3.7-3.5-6.3-6.9h-44.8C118.5,326.2,117.4,330.8,116.6,335.1z"/>
	<path style="fill:#A3A3A3;" d="M140.3,460.7h52.3c0.8-0.5,1.3-1.1,1.4-1.8c0.2-2.4-2-0.1-17-13.4H133
		C135.3,450.9,137.8,456,140.3,460.7z"/>
	<path style="fill:#939393;" d="M123.3,411.3c0.4,3,0.9,5.9,1.5,8.8h30.7c-3.4-5.5-5.8-10.6-7.3-14.9h-25.8
		C122.7,407.3,123,409.4,123.3,411.3z"/>
	<path style="fill:#848484;" d="M122.4,405.2h25.8c-0.3-1-0.6-1.9-0.8-2.8c-0.6-2.5-0.7-7.2-0.5-12.9h-26.8
		C120.9,394.9,121.7,400.2,122.4,405.2z"/>
	<path style="fill:#A3A3A3;" d="M128,432h36c-3.2-4-6-8-8.4-11.9h-30.7C125.7,424.2,126.7,428.1,128,432z"/>
	<path style="fill:#B2B2B2;" d="M133,445.5h43.9c-0.2-0.2-0.4-0.4-0.6-0.6c-4.6-4.1-8.7-8.5-12.3-13h-36
		C129.5,436.7,131.2,441.2,133,445.5z"/>
	<path style="fill:#8D8B8B;" d="M83,370.8c-1.5,0.8-2.4,2.9-1.3,4.2c0.9,1.1,2.6,0.9,4,0.7c11.9-2.1,23.9-4.3,36-3.8
		c8.6,0.4,17.3,2.2,25.8,1c0.7-0.1,1.5-0.3,1.7-0.9c0.3-0.8-0.4-1.6-1.2-2c-2.4-1.3-5.2-1.4-7.9-1.5c-6.2-0.1-12.4-0.2-18.6-0.3
		c-4-0.1-7.9-0.1-11.9,0.1c-3,0.2-6,0.6-9,1c-3.3,0.4-6.6,0.9-9.9,1.3C88.2,370.8,85.4,369.6,83,370.8z"/>
	<ellipse style="fill:#A3A3A3;" cx="112.1" cy="372.2" rx="4.4" ry="3.5"/>
	<path style="fill:#B2B2B2;" d="M106.3,404.1c0.1,2.3,0.4,4.6,1.2,6.7c0.2,0.6,0.8,1.4,1.5,1.1c0.5-0.2,0.6-0.8,0.6-1.3
		c0.3-5.9-0.3-11.7-0.4-17.6c-0.1-2.8,0-5.7,0.2-8.5c0.1-1.4,0.3-2.8,0.6-4.2c0.2-0.8,1.7-5.9,1.1-6.6c-0.8,1.2-2,6.9-2.4,8.4
		c-0.5,1.8-0.9,3.5-1.2,5.3c-0.7,3.5-1.1,7.1-1.2,10.6C106.2,400,106.2,402,106.3,404.1z"/>
	<path style="fill:#B2B2B2;" d="M117.4,414.1c0.8-0.3,1.4-1.1,1.7-2c0.3-0.9,0.3-1.8,0.3-2.7c0.1-11.9-2.5-23.8-7.4-34.7
		c1.2,3.9,2.1,7.8,2.5,11.8c0.5,4.6,0,9.2-0.1,13.8C114.4,405,115.1,410.1,117.4,414.1z"/>
	<path style="fill-rule:evenodd;clip-rule:evenodd;fill:#A8A0A0;stroke:#000000;stroke-width:1.0834;stroke-miterlimit:2.4142;" d="
		M313.9,327.2c-35.2,0-63.9,28.2-63.9,62.8c0,15.5,9.1,31.7,20.9,44.9c-4.5,8.9-8.1,18.6-9.1,30.7l17.9,2.4c1.8-4.6,3.8-9,6.2-13.2
		c-2.6,4.3-4.3,8.5-6.2,13.3l-9.9,20.4c-3,8.2-1.1,14.1,4.3,16l37.1,0l3.5-11.7l-1.4,4.8c10.4,3,22.3,3.3,32.8,0.5
		c13.3-19,10-46.2,7.3-63.2l0.5-3c6-9.7,11.5-21.5,16.1-34.8C383.6,357.2,349.1,327.2,313.9,327.2L313.9,327.2z"/>
	<path style="fill-rule:evenodd;clip-rule:evenodd;fill:#A8A0A0;stroke:#000000;stroke-width:1.0834;stroke-miterlimit:2.4142;" d="
		M355.5,454.5c5.5-2,12-5.4,16.6-9c5.6-4.3,3.8-12.6-0.6-25.5l-17,2.9l-1.3,12.1C354.4,441.3,355.2,447.8,355.5,454.5L355.5,454.5z"
		/>
	<path style="fill-rule:evenodd;clip-rule:evenodd;fill:#A8A0A0;stroke:#000000;stroke-width:1.0834;stroke-miterlimit:2.4142;" d="
		M351.4,428.1c-27.5,4.7-53.1,5.3-82.4,3.1c-2.8-0.2-1.6,4.8,0.3,5.9c27.5,4,53.2,4.1,82.2-2c1.6-0.3,1.7-0.5,2.3-2.1
		c0.6-1.8,1.1-3.5-0.1-4.5C353.2,428,352.6,427.9,351.4,428.1L351.4,428.1z"/>
	
		<ellipse style="fill-rule:evenodd;clip-rule:evenodd;fill:#FFFFFF;stroke:#000000;stroke-width:1.0834;stroke-miterlimit:2.4142;" cx="269.4" cy="475.8" rx="12.5" ry="12.4"/>
	<path style="fill-rule:evenodd;clip-rule:evenodd;fill:#FFFFFF;stroke:#000000;stroke-width:1.0834;stroke-miterlimit:2.4142;" d="
		M354.4,430.9c5.7-9.5,11-20.9,15.4-33.7c3.2-9.3,3.8-18.1,2.4-26.1c-2.9-4.8-6.1-9.3-9.7-13.2c-15-16.3-37.2-15.5-57.8-11.8
		c-24,4.2-38.3,17.6-38.8,44.1c0.8,14.3,4.7,28.1,11,41.6c26,1.5,49.5,0.7,74.5-3.6c1.2-0.2,1.8-0.1,2.3,0.3
		C354.4,429,354.6,429.9,354.4,430.9L354.4,430.9z"/>
	<path style="fill-rule:evenodd;clip-rule:evenodd;fill:#FFFFFF;stroke:#000000;stroke-width:1.0834;stroke-miterlimit:2.4142;" d="
		M333.2,495.2c-14.3,0-25.8,4.8-25.8,10.6c0,5.9,11.6,10.6,25.8,10.6c14.3,0,25.8-4.8,25.8-10.6C359,500,347.5,495.2,333.2,495.2z"
		/>
	<path style="fill-rule:evenodd;clip-rule:evenodd;fill:#FFFFFF;stroke:#000000;stroke-width:1.0834;stroke-miterlimit:2.4142;" d="
		M289.1,498c-15.6,0-28.2,5.8-28.2,13c0,7.2,12.6,13,28.2,13c15.6,0,28.2-5.8,28.2-13C317.3,503.8,304.6,498,289.1,498z"/>
	<path style="fill-rule:evenodd;clip-rule:evenodd;fill:none;stroke:#000000;stroke-width:1.0834;stroke-miterlimit:2.4142;" d="
		M362.4,381.4c31.7,14-44.7,45.6-90.2-0.6"/>
	<path style="fill-rule:evenodd;clip-rule:evenodd;fill:#A8A0A0;stroke:#000000;stroke-width:1.0834;stroke-miterlimit:2.4142;" d="
		M315.6,403.6c-4.7,20.1-42.4,18.8-30.4-12C295,398,305.5,401.8,315.6,403.6L315.6,403.6z"/>
	<path style="fill-rule:evenodd;clip-rule:evenodd;fill:#FFFFFF;stroke:#000000;stroke-width:1.0834;stroke-miterlimit:2.4142;" d="
		M330.8,329.5c-5.6,0-9.2,6.1-7.9,13.7c1.3,7.6,6.9,13.7,12.6,13.7c5.6,0,9.2-6.1,7.9-13.7C342,335.6,336.4,329.5,330.8,329.5z"/>
	<path style="fill-rule:evenodd;clip-rule:evenodd;fill:#FFFFFF;stroke:#000000;stroke-width:1.0834;stroke-miterlimit:2.4142;" d="
		M311,330.4c-6.7,0-11.7,6.6-11.2,14.8c0.5,8.2,6.3,14.8,13,14.8c6.7,0,11.7-6.6,11.2-14.8C323.5,337,317.7,330.4,311,330.4z"/>
	<path style="fill-rule:evenodd;clip-rule:evenodd;" d="M326.7,340c-1.3,0.3-2,2.1-1.6,3.9c0.5,1.8,1.9,3.1,3.2,2.8
		c1.3-0.3,2-2.1,1.6-3.9C329.5,340.9,328.1,339.7,326.7,340z"/>
	<path style="fill-rule:evenodd;clip-rule:evenodd;fill:none;stroke:#000000;stroke-width:1.0834;stroke-miterlimit:2.4142;" d="
		M319.6,346.8c-0.6-2.2-1.7-3.7-3.2-4.8c-1.4,1.2-2.3,3.1-2.5,5.9"/>
	<path style="fill-rule:evenodd;clip-rule:evenodd;fill:none;stroke:#000000;stroke-width:1.0834;stroke-miterlimit:2.4142;" d="
		M318,332.1c-6.3,5.2-11.9,11.6-16.9,18.9"/>
	<path style="fill-rule:evenodd;clip-rule:evenodd;fill:none;stroke:#000000;stroke-width:1.0834;stroke-miterlimit:2.4142;" d="
		M329.6,367.1c2.5,12.6,3.5,25.3,3.2,37.9"/>
	<path style="fill-rule:evenodd;clip-rule:evenodd;fill:#A8A0A0;stroke:#000000;stroke-width:1.0834;stroke-miterlimit:2.4142;" d="
		M328.1,352.4c-4.7,0-8.6,3.4-8.6,7.7s3.8,7.7,8.6,7.7c4.7,0,8.6-3.4,8.6-7.7S332.8,352.4,328.1,352.4z"/>
	<line style="fill:none;stroke:#000000;stroke-width:1.0834;stroke-miterlimit:2.4142;" x1="361.4" y1="361" x2="341" y2="368.8"/>
	
		<line style="fill:none;stroke:#000000;stroke-width:1.0834;stroke-miterlimit:2.4142;" x1="362.9" y1="373.7" x2="342.4" y2="374.8"/>
	
		<line style="fill:none;stroke:#000000;stroke-width:1.0834;stroke-miterlimit:2.4142;" x1="363.4" y1="386.7" x2="342.5" y2="383.9"/>
	
		<line style="fill:none;stroke:#000000;stroke-width:1.0834;stroke-miterlimit:2.4142;" x1="315.4" y1="370.3" x2="289.1" y2="361.5"/>
	<line style="fill:none;stroke:#000000;stroke-width:1.0834;stroke-miterlimit:2.4142;" x1="314" y1="377" x2="287.8" y2="374.5"/>
	
		<line style="fill:none;stroke:#000000;stroke-width:1.0834;stroke-miterlimit:2.4142;" x1="313.8" y1="385.4" x2="285.6" y2="386.5"/>
	<path style="fill-rule:evenodd;clip-rule:evenodd;fill:#FFFFFF;stroke:#000000;stroke-width:1.0834;stroke-miterlimit:2.4142;" d="
		M360.5,396.9c-7.8,0-14.2,6.4-14.2,14.2c0,7.8,6.4,14.2,14.2,14.2c7.8,0,14.2-6.4,14.2-14.2C374.7,403.3,368.3,396.9,360.5,396.9z"
		/>
	<path style="fill-rule:evenodd;clip-rule:evenodd;fill:#FFFFFF;stroke:#000000;stroke-width:1.0834;stroke-miterlimit:2.4142;" d="
		M353.1,476.3c-6.8,13.4-18.2,18.5-33.2,17.6c-31-2-43.9-36.9-15.9-53.8l1.8-0.2c11.8,0,23.7-0.9,36.2-3
		C356.3,443.3,358.6,462.6,353.1,476.3L353.1,476.3z"/>
	<path style="fill-rule:evenodd;clip-rule:evenodd;fill:none;stroke:#000000;stroke-width:1.0834;stroke-miterlimit:2.4142;" d="
		M349.1,459.7c-14.3,0.7-36.9,1.5-42.9,5.6c-0.1,8.8,2.2,14.8,6.6,18.4c8.9,7.4,26,5.2,32.6-4.2C348.7,474.6,349.8,468,349.1,459.7
		L349.1,459.7z"/>
	<path style="fill-rule:evenodd;clip-rule:evenodd;fill:#FFFFFF;" d="M329.8,355.5c-1,0-1.7,0.7-1.7,1.6c0,0.9,0.8,1.6,1.7,1.6
		c1,0,1.7-0.7,1.7-1.6C331.5,356.2,330.7,355.5,329.8,355.5z"/>
	
		<line style="fill:none;stroke:#000000;stroke-width:1.0834;stroke-miterlimit:2.4142;" x1="262.8" y1="465.5" x2="256.4" y2="460.1"/>
	<path style="fill-rule:evenodd;clip-rule:evenodd;fill:#A8A0A0;stroke:#000000;stroke-width:1.0834;stroke-miterlimit:2.4142;" d="
		M254.3,453.8c-2.3,0-4.2,1.9-4.2,4.2c0,2.3,1.9,4.2,4.2,4.2c2.3,0,4.2-1.9,4.2-4.2C258.5,455.7,256.6,453.8,254.3,453.8z"/>
	<path style="fill-rule:evenodd;clip-rule:evenodd;fill:#A8A0A0;stroke:#000000;stroke-width:1.0834;stroke-miterlimit:2.4142;" d="
		M326.3,435.4c-4.7,0.5-8.1,4.7-7.7,9.3c0.5,4.7,4.7,8.1,9.3,7.7c4.7-0.5,8.1-4.7,7.7-9.3C335.1,438.4,331,434.9,326.3,435.4z"/>
	<path style="fill-rule:evenodd;clip-rule:evenodd;fill:#A8A0A0;stroke:#000000;stroke-width:1.0834;stroke-miterlimit:2.4142;" d="
		M318.8,441.9c-0.2,0.8-0.3,1.6-0.2,2.5l17-1.7c-0.1-0.8-0.4-1.6-0.7-2.4L318.8,441.9L318.8,441.9z"/>
	<path style="fill-rule:evenodd;clip-rule:evenodd;" d="M327.1,452.5c0.3,0,0.6,0,0.9,0c0.3,0,0.6-0.1,0.9-0.1l-0.4-4.5
		c0.5-0.4,0.9-1,0.8-1.7c-0.1-1-1-1.7-2-1.6c-1,0.1-1.7,1-1.6,2c0.1,0.7,0.5,1.2,1.1,1.5L327.1,452.5L327.1,452.5z"/>
	
		<line style="fill:none;stroke:#000000;stroke-width:1.9378;stroke-linecap:round;stroke-linejoin:round;stroke-miterlimit:2.4142;" x1="298.5" y1="399.2" x2="296.1" y2="404.4"/>
</g>
</svg>
